<svg xmlns="http://www.w3.org/2000/svg" version="1.1" xmlns:xlink="http://www.w3.org/1999/xlink" width="512px" height="512px"><svg width="512px" height="512px" viewBox="0 0 512 512" version="1.1" xmlns="http://www.w3.org/2000/svg" xmlns:xlink="http://www.w3.org/1999/xlink">
    <title>Favicon</title>
    <g id="SvgjsG1032" stroke="none" stroke-width="1" fill="none" fill-rule="evenodd">
        <g id="SvgjsG1031" transform="translate(49, 15)" fill="#739B79" fill-rule="nonzero">
            <path d="M376.395349,0 C376.395349,0 376.395349,0 376.395349,0 C375.70598,0 375.70598,0 375.70598,0 C363.297342,0 352.267442,5.50857143 344.684385,15.8371429 L207.5,205.882857 L70.3156146,15.8371429 C63.4219269,5.50857143 51.013289,0 39.9833887,0 C38.6046512,0 38.6046512,0 37.9152824,0 C17.2342193,0 0,17.2142857 0,37.8714286 L0,444.128571 C0,464.785714 17.2342193,482 37.9152824,482 C59.2857143,482 76.5199336,464.785714 76.5199336,444.128571 L76.5199336,154.24 L175.099668,291.954286 C182.682724,302.282857 194.401993,307.791429 206.810631,307.791429 C206.810631,307.791429 207.5,307.791429 207.5,307.791429 C207.5,307.791429 208.189369,307.791429 208.189369,307.791429 C220.598007,307.791429 231.627907,302.282857 239.210963,291.954286 L338.480066,154.24 L338.480066,444.128571 C338.480066,464.785714 355.024917,482 376.395349,482 C397.076412,482 415,464.785714 415,444.128571 L415,37.8714286 C415,17.2142857 397.076412,0.688571429 376.395349,0 Z" id="SvgjsPath1030"></path>
        </g>
    </g>
</svg><style>@media (prefers-color-scheme: light) { :root { filter: none; } }
@media (prefers-color-scheme: dark) { :root { filter: none; } }
</style></svg>